<svg data-v-0dd9719b="" version="1.0" xmlns="http://www.w3.org/2000/svg" xmlns:xlink="http://www.w3.org/1999/xlink" width="100%" height="100%" viewBox="0 0 340.000000 250.000000" preserveAspectRatio="xMidYMid meet" color-interpolation-filters="sRGB" style="margin: auto;"> <rect data-v-0dd9719b="" x="0" y="0" width="100%" height="100%" fill="#fff" fill-opacity="0" class="background"></rect> <rect data-v-0dd9719b="" x="0" y="0" width="100%" height="100%" fill="url(#watermark)" fill-opacity="1" class="watermarklayer"></rect> <g data-v-0dd9719b="" fill="#333" class="icon-text-wrapper icon-svg-group iconsvg" transform="translate(49.08000183105469,95.06615447998047)"><g class="iconsvg-imagesvg" transform="matrix(1,0,0,1,0,0)" opacity="1"><g><rect fill="#333" fill-opacity="0" stroke-width="2" x="0" y="0" width="60" height="59.86769239979645" class="image-rect"></rect> <svg x="0" y="0" width="60" height="59.86769239979645" filtersec="colorsb5762953493" class="image-svg-svg primary" style="overflow: visible;"><svg xmlns="http://www.w3.org/2000/svg" viewBox="0.0024607181549072266 -0.018785953521728516 79.9951171875 79.81878662109375"><title>资源 133</title><path d="M40.14 79.8a2.66 2.66 0 0 1-2-1.07c-1.58-1.61-3.14-3.33-4.84-4.82-2-1.72-1.77-3 0-4.8 9-8.88 17.85-18 27-26.75 2.43-2.36 2.29-3.67-.06-6-9-8.74-17.75-17.74-26.71-26.53-1.94-1.91-1.92-3.12 0-5 6.45-6.43 6.38-6.5 12.87 0C57 15.48 67.63 26.17 78.37 36.72c2.14 2.1 2.2 3.39 0 5.53C66.41 54 54.58 66 42.69 77.83a5.82 5.82 0 0 1-2.55 1.97z" fill="#09142e"></path><path d="M23.3 16a4 4 0 0 1 2.15 1.4c6.63 6.6 13.23 13.26 19.92 19.82 1.65 1.62 1.52 2.83 0 4.36q-10 9.89-19.9 19.87c-1.64 1.65-2.93 1.62-4.66 0-7-6.67-7-6.62-.35-13.32 2.24-2.23 4.42-4.52 6.73-6.68 1.66-1.56 1.56-2.83 0-4.38-3.6-3.48-7.06-7.11-10.67-10.59-1.69-1.63-1.89-2.92 0-4.54 1.74-1.48 3.27-3.21 4.9-4.81A3 3 0 0 1 23.3 16z" fill="#09142e"></path><path d="M12.8 39.51a19.94 19.94 0 0 1-5.8 6c-1.71 1.16-2.69-.79-3.71-1.77-4.38-4.23-4.36-4.25-.08-8.39 3-2.88 3.28-2.91 6.24.12 1.19 1.17 2.74 2.12 3.35 4.04z" fill="#e84218"></path></svg></svg> <!----></g></g> <g transform="translate(67,13.423845291137695)"><g data-gra="path-name" fill-rule="" class="tp-name iconsvg-namesvg" opacity="1" transform="matrix(1,0,0,1,0,0)"><g transform="scale(1)"><g><path d="M13.46-12.94L10.46-12.94 10.46-5.35Q10.46-4.34 10.4-3.38 10.34-2.42 10-1.66 9.66-0.91 8.93-0.46 8.21 0 6.85 0L6.85 0Q5.53 0 4.82-0.46 4.1-0.91 3.78-1.66 3.45-2.42 3.39-3.38 3.33-4.34 3.33-5.35L3.33-5.35 3.33-27.48Q3.33-28.49 3.39-29.45 3.45-30.41 3.78-31.16 4.1-31.92 4.82-32.37 5.53-32.83 6.85-32.83L6.85-32.83 14.59-32.83Q17.49-32.69 19.79-31.61L19.79-31.61Q20.78-31.14 21.7-30.44 22.63-29.73 23.37-28.71 24.11-27.69 24.55-26.3 25-24.9 25-23.07L25-23.07Q25-20.57 24.21-18.68 23.43-16.79 21.94-15.51 20.45-14.23 18.3-13.59 16.16-12.94 13.46-12.94L13.46-12.94ZM10.46-18.53L13.65-18.53Q14.82-18.6 15.76-19.09L15.76-19.09Q16.16-19.3 16.53-19.63 16.91-19.96 17.21-20.44 17.52-20.92 17.69-21.57 17.87-22.23 17.87-23.07L17.87-23.07Q17.87-23.87 17.69-24.47 17.52-25.07 17.24-25.5 16.95-25.94 16.6-26.24 16.25-26.55 15.88-26.76L15.88-26.76Q14.98-27.2 13.88-27.3L13.88-27.3 10.46-27.3 10.46-18.53ZM27.2-8.82L27.2-14.63Q27.2-16.79 27.79-18.29 28.37-19.79 29.3-20.8 30.23-21.81 31.36-22.37 32.5-22.93 33.6-23.22 34.71-23.5 35.66-23.57 36.61-23.64 37.14-23.64L37.14-23.64Q37.68-23.64 38.62-23.57 39.56-23.5 40.63-23.22 41.69-22.93 42.78-22.37 43.87-21.81 44.75-20.8 45.63-19.79 46.2-18.29 46.76-16.79 46.76-14.63L46.76-14.63 46.76-8.82Q46.76-6.66 46.2-5.16 45.63-3.66 44.75-2.65 43.87-1.64 42.78-1.08 41.69-0.52 40.63-0.23 39.56 0.05 38.62 0.12 37.68 0.19 37.14 0.19L37.14 0.19Q36.61 0.19 35.66 0.12 34.71 0.05 33.6-0.23 32.5-0.52 31.36-1.08 30.23-1.64 29.3-2.65 28.37-3.66 27.79-5.16 27.2-6.66 27.2-8.82L27.2-8.82ZM34.42-15.66L34.42-7.18Q34.45-6.5 34.75-5.98L34.75-5.98Q35.01-5.51 35.56-5.15 36.11-4.78 37.14-4.78L37.14-4.78Q38.13-4.78 38.66-5.15 39.18-5.51 39.44-5.98L39.44-5.98Q39.72-6.5 39.77-7.18L39.77-7.18 39.77-15.66Q39.72-16.37 39.44-16.95L39.44-16.95Q39.18-17.42 38.66-17.83 38.13-18.24 37.14-18.24L37.14-18.24Q36.11-18.24 35.56-17.83 35.01-17.42 34.75-16.95L34.75-16.95Q34.45-16.37 34.42-15.66L34.42-15.66ZM66.64-19.93L66.64-19.93Q66.64-18.1 65.74-17.26 64.84-16.41 63.17-16.41L63.17-16.41Q62.94-16.41 62.51-16.38 62.07-16.34 61.58-16.19 61.09-16.04 60.58-15.75 60.08-15.45 59.66-14.95 59.23-14.45 58.98-13.67 58.72-12.9 58.72-11.82L58.72-11.82 58.72-5.11Q58.72-4.15 58.61-3.24 58.51-2.32 58.13-1.61 57.76-0.89 57.05-0.45 56.35 0 55.15 0L55.15 0Q53.98 0 53.3-0.45 52.62-0.89 52.26-1.61 51.89-2.32 51.79-3.24 51.68-4.15 51.68-5.11L51.68-5.11 51.68-18.24Q51.68-19.23 51.79-20.16 51.89-21.08 52.26-21.81 52.62-22.54 53.3-22.97 53.98-23.4 55.15-23.4L55.15-23.4Q56.35-23.4 56.99-22.88 57.64-22.35 57.94-21.52 58.25-20.68 58.3-19.66 58.34-18.64 58.34-17.68L58.34-17.68 58.72-17.68Q59.05-18.99 59.59-20.06 60.13-21.13 60.78-21.87 61.44-22.61 62.19-23 62.94-23.4 63.69-23.4L63.69-23.4Q64.6-23.4 65.18-23.2 65.75-23 66.08-22.58 66.41-22.16 66.53-21.5 66.64-20.85 66.64-19.93ZM71.9-23.45L73.21-23.45 73.21-27.58Q73.21-28.56 73.32-29.5 73.42-30.44 73.8-31.18 74.17-31.92 74.87-32.37 75.58-32.83 76.77-32.83L76.77-32.83Q77.95-32.83 78.65-32.37 79.35-31.92 79.72-31.18 80.08-30.44 80.19-29.5 80.29-28.56 80.29-27.58L80.29-27.58 80.29-23.45 82.21-23.45Q82.82-23.45 83.43-23.39 84.04-23.33 84.52-23.05 85.01-22.77 85.3-22.21 85.59-21.64 85.59-20.64L85.59-20.64Q85.59-19.67 85.3-19.11 85.01-18.55 84.52-18.27 84.04-17.99 83.43-17.9 82.82-17.82 82.21-17.82L82.21-17.82 80.29-17.82 80.29-9.61Q80.29-9.15 80.33-8.62 80.36-8.09 80.57-7.64 80.78-7.2 81.21-6.91 81.63-6.61 82.4-6.61L82.4-6.61Q83.25-6.61 83.84-6.48 84.44-6.35 84.83-6.03 85.22-5.7 85.4-5.11 85.59-4.53 85.59-3.61L85.59-3.61Q85.59-2.67 85.16-1.99 84.72-1.31 84-0.87 83.27-0.42 82.31-0.21 81.35 0 80.29 0L80.29 0Q78.63 0 77.44-0.35 76.26-0.7 75.47-1.35 74.69-1.99 74.23-2.9 73.77-3.8 73.55-4.92 73.33-6.05 73.27-7.35 73.21-8.65 73.21-10.08L73.21-10.08 73.21-17.82 71.9-17.82Q71.29-17.82 70.69-17.9 70.09-17.99 69.62-18.27 69.15-18.55 68.86-19.11 68.57-19.67 68.57-20.64L68.57-20.64Q68.57-21.64 68.86-22.21 69.15-22.77 69.62-23.05 70.09-23.33 70.69-23.39 71.29-23.45 71.9-23.45L71.9-23.45ZM99.38-23.45L100.79-23.45Q101.37-23.45 101.98-23.38 102.59-23.31 103.07-23.03 103.55-22.75 103.86-22.16 104.16-21.57 104.16-20.54L104.16-20.54Q104.16-19.58 103.86-19.03 103.55-18.48 103.07-18.19 102.59-17.89 101.98-17.81 101.37-17.73 100.79-17.73L100.79-17.73 99.38-17.73 99.38-5.3Q99.38-4.27 99.27-3.32 99.17-2.37 98.78-1.63 98.39-0.89 97.66-0.45 96.92 0 95.67 0L95.67 0Q94.48 0 93.79-0.45 93.1-0.89 92.74-1.63 92.39-2.37 92.3-3.32 92.2-4.27 92.2-5.3L92.2-5.3 92.2-17.73 90.89-17.73Q90.23-17.73 89.64-17.81 89.04-17.89 88.58-18.19 88.12-18.48 87.84-19.03 87.56-19.58 87.56-20.54L87.56-20.54Q87.56-21.57 87.84-22.16 88.12-22.75 88.58-23.03 89.04-23.31 89.64-23.38 90.23-23.45 90.89-23.45L90.89-23.45 92.2-23.45Q92.2-25.51 92.39-27.25 92.58-28.98 93.31-30.21 94.03-31.45 95.46-32.14 96.89-32.83 99.38-32.83L99.38-32.83Q100.44-32.83 101.37-32.64 102.31-32.45 103.01-32.06 103.72-31.66 104.13-31.01 104.54-30.37 104.54-29.45L104.54-29.45Q104.54-28.61 104.25-28.05 103.95-27.48 103.53-27.13 103.11-26.78 102.6-26.64 102.1-26.5 101.68-26.5L101.68-26.5Q101.33-26.5 101.02-26.66 100.72-26.83 100.32-26.83L100.32-26.83Q99.99-26.83 99.81-26.62 99.64-26.4 99.53-26.05 99.43-25.7 99.4-25.28 99.38-24.86 99.38-24.43L99.38-24.43 99.38-23.45ZM106.98-8.82L106.98-14.63Q106.98-16.79 107.56-18.29 108.15-19.79 109.08-20.8 110-21.81 111.14-22.37 112.28-22.93 113.38-23.22 114.48-23.5 115.43-23.57 116.38-23.64 116.92-23.64L116.92-23.64Q117.46-23.64 118.4-23.57 119.34-23.5 120.4-23.22 121.47-22.93 122.56-22.37 123.65-21.81 124.53-20.8 125.41-19.79 125.97-18.29 126.53-16.79 126.53-14.63L126.53-14.63 126.53-8.82Q126.53-6.66 125.97-5.16 125.41-3.66 124.53-2.65 123.65-1.64 122.56-1.08 121.47-0.52 120.4-0.23 119.34 0.05 118.4 0.12 117.46 0.19 116.92 0.19L116.92 0.19Q116.38 0.19 115.43 0.12 114.48 0.05 113.38-0.23 112.28-0.52 111.14-1.08 110-1.64 109.08-2.65 108.15-3.66 107.56-5.16 106.98-6.66 106.98-8.82L106.98-8.82ZM114.2-15.66L114.2-7.18Q114.22-6.5 114.53-5.98L114.53-5.98Q114.79-5.51 115.34-5.15 115.89-4.78 116.92-4.78L116.92-4.78Q117.91-4.78 118.43-5.15 118.96-5.51 119.22-5.98L119.22-5.98Q119.5-6.5 119.55-7.18L119.55-7.18 119.55-15.66Q119.5-16.37 119.22-16.95L119.22-16.95Q118.96-17.42 118.43-17.83 117.91-18.24 116.92-18.24L116.92-18.24Q115.89-18.24 115.34-17.83 114.79-17.42 114.53-16.95L114.53-16.95Q114.22-16.37 114.2-15.66L114.2-15.66ZM131.65-5.25L131.65-27.62Q131.65-28.61 131.75-29.55 131.86-30.48 132.23-31.21 132.61-31.94 133.31-32.38 134.02-32.83 135.21-32.83L135.21-32.83Q136.43-32.83 137.13-32.38 137.84-31.94 138.2-31.21 138.56-30.48 138.67-29.55 138.78-28.61 138.78-27.62L138.78-27.62 138.78-5.25Q138.78-4.27 138.67-3.32 138.56-2.37 138.2-1.63 137.84-0.89 137.13-0.45 136.43 0 135.21 0L135.21 0Q134.02 0 133.31-0.45 132.61-0.89 132.23-1.63 131.86-2.37 131.75-3.32 131.65-4.27 131.65-5.25L131.65-5.25ZM145.72-5.25L145.72-18.2Q145.72-19.18 145.82-20.12 145.93-21.06 146.3-21.8 146.68-22.54 147.38-22.99 148.08-23.45 149.28-23.45L149.28-23.45Q150.48-23.45 151.18-22.99 151.88-22.54 152.26-21.8 152.63-21.06 152.74-20.12 152.85-19.18 152.85-18.2L152.85-18.2 152.85-5.25Q152.85-4.27 152.74-3.32 152.63-2.37 152.26-1.63 151.88-0.89 151.18-0.45 150.48 0 149.28 0L149.28 0Q148.08 0 147.38-0.45 146.68-0.89 146.3-1.63 145.93-2.37 145.82-3.32 145.72-4.27 145.72-5.25L145.72-5.25ZM152.89-29.27L152.89-29.27Q152.89-27.46 151.95-26.58 151.02-25.7 149.33-25.7L149.33-25.7Q147.64-25.7 146.7-26.58 145.76-27.46 145.76-29.27L145.76-29.27Q145.76-31.14 146.7-31.99 147.64-32.83 149.33-32.83L149.33-32.83Q151.13-32.83 152.01-31.99 152.89-31.14 152.89-29.27ZM158.61-8.82L158.61-14.63Q158.61-16.79 159.2-18.29 159.79-19.79 160.71-20.8 161.64-21.81 162.78-22.37 163.91-22.93 165.02-23.22 166.12-23.5 167.07-23.57 168.02-23.64 168.56-23.64L168.56-23.64Q169.1-23.64 170.03-23.57 170.97-23.5 172.04-23.22 173.11-22.93 174.2-22.37 175.29-21.81 176.17-20.8 177.05-19.79 177.61-18.29 178.17-16.79 178.17-14.63L178.17-14.63 178.17-8.82Q178.17-6.66 177.61-5.16 177.05-3.66 176.17-2.65 175.29-1.64 174.2-1.08 173.11-0.52 172.04-0.23 170.97 0.05 170.03 0.12 169.1 0.19 168.56 0.19L168.56 0.19Q168.02 0.19 167.07 0.12 166.12 0.05 165.02-0.23 163.91-0.52 162.78-1.08 161.64-1.64 160.71-2.65 159.79-3.66 159.2-5.16 158.61-6.66 158.61-8.82L158.61-8.82ZM165.84-15.66L165.84-7.18Q165.86-6.5 166.16-5.98L166.16-5.98Q166.42-5.51 166.97-5.15 167.52-4.78 168.56-4.78L168.56-4.78Q169.54-4.78 170.07-5.15 170.6-5.51 170.85-5.98L170.85-5.98Q171.14-6.5 171.18-7.18L171.18-7.18 171.18-15.66Q171.14-16.37 170.85-16.95L170.85-16.95Q170.6-17.42 170.07-17.83 169.54-18.24 168.56-18.24L168.56-18.24Q167.52-18.24 166.97-17.83 166.42-17.42 166.16-16.95L166.16-16.95Q165.86-16.37 165.84-15.66L165.84-15.66Z" transform="translate(-3.3299999237060547, 32.83000183105469)"></path></g> <!----> <!----> <!----> <!----> <!----> <!----> <!----></g></g> <!----></g></g><defs v-gra="od"></defs></svg>