<?xml version="1.0" standalone="no"?>
<!DOCTYPE svg PUBLIC "-//W3C//DTD SVG 20010904//EN"
 "http://www.w3.org/TR/2001/REC-SVG-20010904/DTD/svg10.dtd">
<svg version="1.0" xmlns="http://www.w3.org/2000/svg"
 width="826.000000pt" height="826.000000pt" viewBox="0 0 826.000000 826.000000"
 preserveAspectRatio="xMidYMid meet">

<g transform="translate(0.000000,826.000000) scale(0.100000,-0.100000)"
fill="#000000" stroke="none">
<path d="M1659 4666 c-118 -42 -179 -160 -145 -279 33 -112 124 -167 278 -167
l78 0 0 -89 0 -89 -98 -4 c-80 -3 -108 -8 -146 -28 -120 -62 -159 -218 -83
-331 77 -115 248 -133 347 -36 54 53 70 98 70 210 l0 97 139 0 139 0 4 -102
c3 -80 9 -112 26 -145 40 -76 119 -123 208 -123 71 0 187 70 168 101 -4 8 -3
10 5 5 7 -5 17 5 26 28 17 39 20 59 6 37 -7 -11 -10 -9 -16 8 -3 11 -11 21
-16 21 -5 0 -10 19 -10 43 l-2 42 -7 -35 c-7 -35 -7 -35 -9 -5 -1 34 -67 124
-91 125 -13 0 -13 1 0 10 11 7 7 10 -20 11 l-35 1 38 8 c54 10 57 20 6 21 -40
1 -42 1 -16 9 16 5 36 6 45 4 13 -4 13 -3 -1 6 -11 7 -30 10 -43 7 -13 -2 -24
0 -24 4 0 5 -34 9 -75 9 l-75 0 0 90 0 89 53 4 52 3 -55 0 c-52 -1 -55 -2 -58
-28 -3 -24 -7 -27 -39 -25 -33 2 -35 3 -30 33 4 26 1 33 -18 42 -15 7 -26 7
-33 0 -7 -7 -18 -4 -36 7 -42 28 -33 44 27 47 l52 3 1 80 0 80 -3 -77 -4 -78
-139 0 -140 0 0 88 c0 100 -8 141 -22 120 -6 -9 -7 -6 -3 10 7 26 -30 86 -47
76 -6 -4 -8 -2 -4 4 3 6 -6 19 -21 30 -61 42 -136 52 -204 28z m186 -26 c3 -6
-1 -7 -9 -4 -18 7 -21 14 -7 14 6 0 13 -4 16 -10z m-41 -69 c54 -36 66 -67 66
-168 l0 -93 -81 0 c-123 0 -185 40 -196 128 -13 107 121 192 211 133z m436
-441 l0 -90 -140 0 -140 0 0 90 0 90 140 0 140 0 0 -90z m-372 -279 c-3 -90
-5 -102 -28 -126 -68 -73 -161 -73 -219 1 -32 41 -36 85 -12 138 27 63 76 85
184 86 l79 0 -4 -99z m670 79 c51 -31 74 -76 69 -134 -4 -43 -10 -55 -45 -88
-36 -33 -47 -38 -91 -38 -39 0 -56 6 -81 26 -49 41 -60 73 -60 169 l0 85 88 0
c69 0 94 -4 120 -20z"/>
<path d="M3925 4578 c-32 -17 -45 -39 -45 -78 0 -96 131 -110 163 -18 10 28
-13 78 -44 93 -33 18 -47 18 -74 3z"/>
<path d="M3140 4130 l0 -440 64 0 65 0 3 203 c3 221 9 245 70 290 40 30 124
34 165 8 65 -41 68 -53 71 -288 l3 -213 65 0 65 0 -3 238 c-3 220 -5 240 -25
277 -46 87 -113 125 -220 125 -72 0 -144 -26 -166 -61 -7 -11 -15 -19 -19 -19
-5 0 -8 72 -8 160 l0 160 -65 0 -65 0 0 -440z"/>
<path d="M6190 4130 l0 -440 64 0 65 0 3 209 c3 229 5 235 71 285 39 29 123
33 164 7 65 -41 68 -52 68 -288 l0 -213 68 0 67 0 0 213 c0 241 -9 293 -63
354 -45 51 -98 73 -181 73 -75 0 -147 -26 -169 -61 -7 -11 -15 -19 -19 -19 -5
0 -8 72 -8 160 l0 160 -65 0 -65 0 0 -440z"/>
<path d="M4263 4374 c-59 -64 -109 -122 -111 -129 -2 -10 12 -15 55 -17 l58
-3 5 -200 c4 -143 9 -207 19 -225 17 -32 60 -79 84 -91 29 -16 128 -29 169
-23 l38 7 0 58 0 59 -68 0 c-114 0 -112 -4 -112 226 l0 194 95 0 95 0 0 45 0
45 -95 0 -95 0 0 85 c0 67 -3 85 -14 85 -8 0 -63 -52 -123 -116z"/>
<path d="M2324 4365 l1 -60 80 -1 80 0 -77 3 -77 4 -4 57 -3 57 0 -60z"/>
<path d="M4889 4317 c-88 -33 -143 -82 -185 -167 -24 -48 -28 -67 -29 -145 0
-79 3 -97 28 -147 67 -137 216 -207 377 -178 74 13 130 42 178 93 l34 35 -57
32 -56 32 -27 -25 c-75 -72 -226 -64 -299 15 -24 26 -45 73 -36 82 4 3 119 6
256 6 l250 0 -6 74 c-7 90 -31 149 -88 211 -64 70 -107 88 -214 92 -59 2 -103
-1 -126 -10z m228 -143 c34 -28 73 -97 62 -109 -7 -6 -359 -8 -365 -2 -8 8 32
80 58 104 36 34 68 43 140 40 58 -2 72 -7 105 -33z"/>
<path d="M5630 4304 c-68 -31 -123 -83 -158 -149 -24 -45 -27 -61 -27 -150 0
-117 18 -166 88 -235 104 -105 264 -126 399 -53 44 24 118 95 118 113 0 3 -25
20 -56 38 l-55 32 -26 -30 c-36 -44 -80 -63 -143 -64 -67 -1 -137 35 -170 88
-27 44 -36 122 -20 170 16 48 66 105 107 122 76 32 187 7 230 -51 l19 -26 56
32 c65 37 65 43 -4 109 -83 82 -246 106 -358 54z"/>
<path d="M3890 4005 l0 -315 70 0 70 0 0 315 0 315 -70 0 -70 0 0 -315z"/>
<path d="M2208 4273 c7 -3 16 -2 19 1 4 3 -2 6 -13 5 -11 0 -14 -3 -6 -6z"/>
<path d="M2508 4233 c7 -3 16 -2 19 1 4 3 -2 6 -13 5 -11 0 -14 -3 -6 -6z"/>
<path d="M2656 3912 c-2 -4 -1 -23 4 -42 7 -30 8 -31 10 -10 1 15 7 2 13 -30
5 -30 12 -49 15 -41 2 7 -1 38 -7 67 -12 52 -24 73 -35 56z"/>
</g>
</svg>
