<?xml version="1.0" encoding="UTF-8"?>
<svg xmlns="http://www.w3.org/2000/svg" width="400.00003051757807" height="115.95870208740234" viewBox="232.8066547270144 205.00000039503067 400.00003051757807 115.95870208740234" preserveAspectRatio="none">
  <g>
    <defs>
      <path id="s-Rect_1-d1224" d="M232.80665459214393 207.00776681831167 L632.8066802411397 205.00000000000017 L632.8066802411397 317.61242422658324 L235.73619567692103 320.9587022571024 Z "></path>
    </defs>
    <g style="mix-blend-mode:normal">
      <use xmlns:xlink="http://www.w3.org/1999/xlink" xlink:href="#s-Rect_1-d1224" fill="#FFFFFF" fill-opacity="0.0"></use>
    </g>
  </g>
  <g>
    <defs>
      <path id="s-Rect_2-d1224" d="M236.4685763957578 244.3406311168453 L440.9217346358826 244.3406311168453 L440.9217346358826 381.7155127692703 L236.4685763957578 381.7155127692703 Z "></path>
    </defs>
    <g style="mix-blend-mode:normal">
      <use xmlns:xlink="http://www.w3.org/1999/xlink" xlink:href="#s-Rect_2-d1224" fill="none"></use>
    </g>
  </g>
  <g>
    <defs>
      <path id="s-Rect_3-d1224" d="M255.75933430960816 216.9141669441703 L332.9343994448613 216.9141669441703 L332.9343994448613 288.5534669986304 L255.75933430960816 288.5534669986304 Z "></path>
    </defs>
    <g style="mix-blend-mode:normal">
      <use xmlns:xlink="http://www.w3.org/1999/xlink" xlink:href="#s-Rect_3-d1224" fill="#333333" fill-opacity="0.0"></use>
    </g>
  </g>
  <g>
    <defs>
      <path id="s-Path_1-d1224" d="M307.38945210002987 312.4050112319238 C306.37014833659737 312.35680779802556 305.4257036057859 311.88673683804564 304.8169499288549 311.1246201982252 C302.7846731584267 309.1980505893296 300.778121385177 307.13985212764504 298.5914944783449 305.35687748823386 C296.0189923071699 303.29867888390015 296.31483008138815 301.7669962613189 298.5914944783449 299.6130672969315 C310.16775424863266 288.9870187283201 321.5510768467483 278.0737799354418 333.3202737892085 267.6032930236065 C336.44586401305276 264.77925325063126 336.2657887261373 263.2116715647185 333.2430987257984 260.42353056977663 C321.66683895551034 249.96501020258395 310.4121419566194 239.1953665218391 298.88733340735314 228.67701343143355 C296.3920062277134 226.3914557569061 296.4177313782249 224.9435370923851 298.88733340735314 222.69387805324197 C307.18365266405976 214.99956616230224 307.09361548060144 214.9158020615929 315.44138473166504 222.69387805324197 C329.0756461881014 235.43795352727895 342.74849169510276 248.2298976049203 356.56283541990115 260.85431462233555 C359.31541287799155 263.3672313670568 359.392587869527 264.9108805342806 356.56283541990115 267.47166260167774 C341.17927361387217 281.5320290286393 325.96292091617556 295.89155393629903 310.6693913869465 310.0476544321899 C309.8364333183314 311.10486183262856 308.6993290306989 311.92212029872405 307.3894511800316 312.40500980543317 Z "></path>
    </defs>
    <g style="mix-blend-mode:normal">
      <use xmlns:xlink="http://www.w3.org/1999/xlink" xlink:href="#s-Path_1-d1224" fill="#09142E" fill-opacity="1.0"></use>
    </g>
  </g>
  <g>
    <defs>
      <path id="s-Path_2-d1224" d="M285.72898362246406 236.06020015438287 C286.8233176836072 236.32093883896556 287.7954681984306 236.90985860452327 288.49442357914364 237.7354780317467 C297.0222684237888 245.63321661684034 305.51152485266795 253.60275332859698 314.1165453021807 261.4526263057165 C316.23885956273364 263.39116217395656 316.0716469277406 264.83908083847757 314.1165453021807 266.66992051526654 C305.5415380649305 274.559681974528 297.0094060274218 282.48534230692235 288.52014918965455 290.4469015124494 C286.4106974276909 292.4213361587228 284.75143342301635 292.3854373806894 282.5262193270829 290.4469015124494 C273.52246172797004 282.4653988266464 273.52246172797004 282.5252304086668 282.0760314547939 274.5078292301285 C284.9572338987765 271.8393508286312 287.76126135122394 269.0990748710672 290.7325012853313 266.5143605702792 C292.86767804447334 264.647622400755 292.73905290524806 263.1279060375182 290.7325012853313 261.2731338420403 C286.1019974998827 257.1088715959951 281.6515686946831 252.76511517448492 277.008202103979 248.6008529284397 C274.83443769573626 246.65035080085522 274.57718757061843 245.10670177628046 277.008202103979 243.16816605068945 C279.24627900516805 241.39715795592093 281.2142431293171 239.3269930922428 283.31083254602447 237.4123898853407 C283.9043304023956 236.6940756645671 284.76866556538005 236.21075386433694 285.72898362246406 236.06020015438287 Z "></path>
    </defs>
    <g style="mix-blend-mode:normal">
      <use xmlns:xlink="http://www.w3.org/1999/xlink" xlink:href="#s-Path_2-d1224" fill="#09142E" fill-opacity="1.0"></use>
    </g>
  </g>
  <g>
    <defs>
      <path id="s-Path_3-d1224" d="M272.22334845045646 264.1929006941404 C270.30882312892004 267.04880154606514 267.76624802205123 269.4957797680876 264.76309190871615 271.3726631479704 C262.563602503295 272.76075051576913 261.3030764148859 270.4273277325392 259.99110033212 269.2546332469144 C254.357320430047 264.1929006941404 254.3830454272255 264.16896817545154 259.88820024757297 259.2149316714796 C263.7469535043355 255.76864555669806 264.10710377149996 255.7327467786647 267.91440672723934 259.3585269173465 C269.4450455926884 260.7585805444897 271.4387347140157 261.8953761807566 272.2233477412909 264.19290025727764 Z "></path>
    </defs>
    <g style="mix-blend-mode:normal">
      <use xmlns:xlink="http://www.w3.org/1999/xlink" xlink:href="#s-Path_3-d1224" fill="#E84218" fill-opacity="1.0"></use>
    </g>
  </g>
  <g>
    <defs>
      <path id="s-Path_4-d1224" d="M378.1679751895539 267.0809792489917 L374.3092219327913 267.0809792489917 L374.3092219327913 278.43692827303676 C374.3092219327913 279.4443508631555 374.2834967311687 280.4268373871127 374.23204632792385 281.3843878449086 C374.1805967424549 282.3419383027044 374.00909676126525 283.1997439607816 373.71754638435453 283.95780481914005 C373.42599600744364 284.7058910251143 372.967233251095 285.3043600166473 372.3412581153085 285.75321179373907 C371.72385736524893 286.21203804485754 370.83205644084205 286.4414511704167 369.6658553420872 286.4414511704167 L369.6658553420872 286.4414511704167 C368.5339546484587 286.4414511704167 367.6635915283665 286.21203804485754 367.05476598181065 285.75321179373907 C366.4373652317512 285.3043600166473 365.99146476954763 284.7058910251143 365.7170645952 283.95780481914005 C365.434089421793 283.1997439607816 365.2668768379109 282.3419383027044 365.2154268435538 281.3843878449086 C365.1639766447529 280.4268373871127 365.1382515453522 279.4443508631555 365.1382515453522 278.43692827303676 L365.1382515453522 278.43692827303676 L365.1382515453522 245.32663070745662 C365.1382515453522 244.31920764171747 365.1639766447529 243.33672040432953 365.2154268435538 242.3791689952928 C365.2668768379109 241.4216194887378 365.434089421793 240.5688016027469 365.7170645952 239.82071533732017 C365.99146476954763 239.06265436005663 366.4373652317512 238.45919856254133 367.05476598181065 238.01034794477434 C367.6635915283665 237.551518810207 368.5339546484587 237.32210424292336 369.6658553420872 237.32210424292336 L369.6658553420872 237.32210424292336 L379.6214390634676 237.32210424292336 C382.1081908351596 237.46175020863905 384.33769304395537 238.07019431331358 386.30994568985466 239.14743655694707 L386.30994568985466 239.14743655694707 C387.158871210076 239.61623850086949 387.9777843358114 240.19974582595194 388.76668506706056 240.89795853219454 C389.5641593662604 241.60614785275573 390.28017250328196 242.4689414018243 390.91472447812487 243.48633917940026 C391.5492748174151 244.50373505449448 392.0551995574807 245.70566024484754 392.4324986983218 247.09211475045936 C392.818374678219 248.48854206542623 393.0113126681678 250.09942092868064 393.0113126681678 251.92475134022263 L393.0113126681678 251.92475134022263 C393.0113126681678 254.41837222497844 392.6725994897638 256.6077710573969 391.9951731329555 258.49294783747814 C391.32632361520365 260.3781246175593 390.353060915286 261.95908029654413 389.075385033202 263.23581487443255 C387.797709151118 264.51254945232097 386.2370572778506 265.4700999101168 384.39342941339964 266.10846624782016 C382.5583783880047 266.75680824860115 380.4832269800563 267.0809792489917 378.1679751895539 267.0809792489917 L378.1679751895539 267.0809792489917 Z M374.3092219327913 258.71737314636164 L378.4123623560831 258.71737314636164 C379.4156382682636 258.64755206598556 380.32030179348203 258.36826679324037 381.1263529317382 257.87951732812604 L381.1263529317382 257.87951732812604 C381.4693528941178 257.67005408699777 381.7994908690181 257.4007435260894 382.11676685643965 257.0715856454009 C382.44261641181185 256.7424277647124 382.7341659709464 256.33846049648855 382.99141553384266 255.8596838407293 C383.2572419357955 255.3809090874518 383.4630427309995 254.81735118604297 383.60881791945496 254.16901013650286 C383.7631683114139 253.51069437512587 383.8403435073935 252.76260810969913 383.8403435073935 251.92475134022263 L383.8403435073935 251.92475134022263 C383.8403435073935 251.12679151561173 383.7631683114139 250.42857785812828 383.60881791945496 249.83011036777228 C383.4630427309995 249.23164097493452 383.27010474105094 248.71795473022814 383.0300039496087 248.28905163365303 C382.78132959021593 247.85017382524114 382.5069296203124 247.48111804844623 382.20680403989803 247.1818843032682 C381.9066784594839 246.8726758462534 381.59797808445416 246.613339045941 381.280702914809 246.403873902331 L381.280702914809 246.403873902331 C380.5089517727906 245.96499609391907 379.6514510490655 245.69568553301067 378.7082007436338 245.59594221960586 L378.7082007436338 245.59594221960586 L374.3092219327913 245.59594221960586 L374.3092219327913 258.71737314636164 Z M395.84106603779213 273.24520990488463 L395.84106603779213 264.55244687280697 C395.84106603779213 262.3979576293356 396.09402881671315 260.5726267421732 396.5999543745551 259.07645421131974 C397.0973047288937 257.58028168046627 397.7447170556625 256.3284848334108 398.54219135486255 255.32106367015342 C399.3396672896152 254.31364060441433 400.22289362385095 253.53064284755862 401.19187035757017 252.9720703995865 C402.16942065923956 252.41349985409607 403.1298205539022 251.98958506468028 404.0730700415573 251.70032603133916 C405.0248963682691 251.42103980735303 405.9081227025048 251.24648615517197 406.7227490442649 251.17666507479586 C407.53737538602473 251.1068439944198 408.17192572531474 251.07193345423178 408.6264000621354 251.07193345423178 L408.6264000621354 251.07193345423178 C409.0894512380122 251.07193345423178 409.7240015773025 251.1068439944198 410.53005108000605 251.17666507479586 C411.33610385381496 251.24648615517197 412.1978929970685 251.42103980735303 413.11541850976573 251.70032603133916 C414.02436718340664 251.98958506468028 414.9461794800794 252.41349985409607 415.88085539978374 252.9720703995865 C416.8155313194884 253.53064284755862 417.6601700557345 254.31364060441433 418.41477160852196 255.32106367015342 C419.1693731613095 256.3284848334108 419.7910615131208 257.58028168046627 420.2798366639556 259.07645421131974 C420.76003497573413 260.5726267421732 421.0001341316233 262.3979576293356 421.0001341316233 264.55244687280697 L421.0001341316233 264.55244687280697 L421.0001341316233 273.24520990488463 C421.0001341316233 275.3996981971151 420.76003497573413 277.2250286086571 420.2798366639556 278.7212011395105 C419.7910615131208 280.2173734325538 419.1693731613095 281.46917099303994 418.41477160852196 282.47659382096884 C417.6601700557345 283.4840167678029 416.8155313194884 284.2670137517753 415.88085539978374 284.82558477288615 C414.9461794800794 285.38415591290214 414.02436718340664 285.8080714826327 413.11541850976573 286.0973314820779 C412.1978929970685 286.37661702607534 411.33610385381496 286.5511704887515 410.53005108000605 286.6209918701061 C409.7240015773025 286.6908132551765 409.0894512380122 286.7257239477117 408.6264000621354 286.7257239477117 L408.6264000621354 286.7257239477117 C408.17192572531474 286.7257239477117 407.53737538602473 286.6908132551765 406.7227490442649 286.6209918701061 C405.9081227025048 286.5511704887515 405.0248963682691 286.37661702607534 404.0730700415573 286.0973314820779 C403.1298205539022 285.8080714826327 402.16942065923956 285.38415591290214 401.19187035757017 284.82558477288615 C400.22289362385095 284.2670137517753 399.3396672896152 283.4840167678029 398.54219135486255 282.47659382096884 C397.7447170556625 281.46917099303994 397.0973047288937 280.2173734325538 396.5999543745551 278.7212011395105 C396.09402881671315 277.2250286086571 395.84106603779213 275.3996981971151 395.84106603779213 273.24520990488463 L395.84106603779213 273.24520990488463 Z M405.1277955392065 263.01138956554905 L405.1277955392065 275.6989326557238 C405.15352278526996 276.37719736515396 405.2950111897501 276.9756662823712 405.5522607526464 277.49433940737566 L405.5522607526464 277.49433940737566 C405.7752095015286 277.96313992443675 406.12249788343615 278.3770809532566 406.59412589836944 278.73616249383514 C407.0657506421971 279.1052182706301 407.74317536345234 279.2897461590276 408.6264000621354 279.2897461590276 L408.6264000621354 279.2897461590276 C409.4753272179097 279.2897461590276 410.12702796420706 279.1052182706301 410.5815023010275 278.73616249383514 C411.0274030698971 278.3770809532566 411.361827828773 277.96313992443675 411.584776577655 277.49433940737566 L411.584776577655 277.49433940737566 C411.8248790046498 276.9756662823712 411.96636740912993 276.37719736515396 412.00924179109495 275.6989326557238 L412.00924179109495 275.6989326557238 L412.00924179109495 263.01138956554905 C411.96636740912993 262.3032002449879 411.8248790046498 261.6598456001252 411.584776577655 261.0813256309612 L411.584776577655 261.0813256309612 C411.361827828773 260.61252558952054 411.0274030698971 260.17364873234953 410.5815023010275 259.7646950594481 C410.12702796420706 259.3557413865467 409.4753272179097 259.151264550096 408.6264000621354 259.151264550096 L408.6264000621354 259.151264550096 C407.74317536345234 259.151264550096 407.0657506421971 259.3557413865467 406.59412589836944 259.7646950594481 C406.12249788343615 260.17364873234953 405.7752095015286 260.61252558952054 405.5522607526464 261.0813256309612 L405.5522607526464 261.0813256309612 C405.2950111897501 261.6598456001252 405.15352278526996 262.3032002449879 405.1277955392065 263.01138956554905 L405.1277955392065 263.01138956554905 Z M446.5708070869684 256.6227321739113 L446.5708070869684 256.6227321739113 C446.5708070869684 258.4480625854533 446.1849311070707 259.77965617596243 445.41317914727614 260.617512945439 C444.64142718748127 261.46534442675227 443.53953888833894 261.88926016740896 442.1075142498488 261.88926016740896 L442.1075142498488 261.88926016740896 C441.9102894759247 261.88926016740896 441.6273143025175 261.9042222351643 441.2585887296272 261.9341463706747 C440.88128958878633 261.97404331554026 440.48255325696266 262.0688002242676 440.0623797341566 262.21841709685657 C439.64220294024483 262.36803396944555 439.21345257838243 262.58747287365156 438.77612864856906 262.87673380947444 C438.34737828670666 263.17596850589325 437.95292710330557 263.5749479425783 437.59277509836625 264.07367211952953 C437.22404952547595 264.57239629648063 436.9324991485653 265.2107631098044 436.7181239676339 265.9887725595008 C436.4951752187518 266.75680824860115 436.38370084431085 267.679448166209 436.38370084431085 268.75669231232416 L436.38370084431085 268.75669231232416 L436.38370084431085 278.79600933799486 C436.38370084431085 279.7535597957907 436.33653804281755 280.68617406852 436.2422124398307 281.59385215618283 C436.1564604047951 282.5115047178722 435.95066042736755 283.3244251239245 435.62481250754786 284.0326133743397 C435.30753488457356 284.7507762176866 434.84448370869677 285.3292962760295 434.23565897991716 285.7681735493684 C433.63540781908864 286.21702529673394 432.8207831128816 286.4414511704167 431.7917848612959 286.4414511704167 L431.7917848612959 286.4414511704167 C430.78850731356283 286.4414511704167 429.99531816278545 286.21702529673394 429.4122174089639 285.7681735493684 C428.82911665514234 285.3292962760295 428.38321588627275 284.7507762176866 428.0745151023549 284.0326133743397 C427.7572407504862 283.3244251239245 427.5557291925867 282.5115047178722 427.4699804286564 281.59385215618283 C427.3756548256699 280.68617406852 427.3284920241763 279.7535597957907 427.3284920241763 278.79600933799486 L427.3284920241763 278.79600933799486 L427.3284920241763 259.151264550096 C427.3284920241763 258.1637909080305 427.3756548256699 257.20624045023465 427.4699804286564 256.2786131767084 C427.5557291925867 255.36096061501902 427.7572407504862 254.5380659132978 428.0745151023549 253.8099290715447 C428.38321588627275 253.0817903273099 428.82911665514234 252.50327035814584 429.4122174089639 252.0743691640525 C429.99531816278545 251.64546606747746 430.78850731356283 251.43101451918986 431.7917848612959 251.43101451918986 L431.7917848612959 251.43101451918986 C432.8207831128816 251.43101451918986 433.6096838441306 251.6903513195023 434.15848705504345 252.20902492012715 C434.71586056280137 252.73767133010702 435.1231720981284 253.4159355639168 435.3804216610247 254.24381762155645 C435.6462480629775 255.08167439103292 435.8005984549367 256.0093016645592 435.8434728369017 257.02669944213517 C435.8777736509161 258.04409721971115 435.8949240579233 259.03157086177663 435.8949240579233 259.98912036833156 L435.8949240579233 259.98912036833156 L436.38370084431085 259.98912036833156 C436.6666743821653 258.6824635574145 437.0396867390308 257.4955004348167 437.5027379149076 256.4282310005383 C437.9657890907846 255.3609615662599 438.47600143260195 254.45827012108487 439.03337494035975 253.72015666501323 C439.5993252871741 252.98204511142333 440.20386323197795 252.4184872100145 440.84698877477194 252.02948296078677 C441.4901143175657 251.63050399972215 442.1332398603595 251.43101451918986 442.7763654031532 251.43101451918986 L442.7763654031532 251.43101451918986 C443.5566909308989 251.43101451918986 444.1955296897173 251.53075878383558 444.69288167960843 251.73024731312702 C445.1816568304433 251.9297377449002 445.5675328103407 252.2389471531559 445.8505096193005 252.6578755378941 C446.13348642826054 253.07680392263234 446.3264227826565 253.61542599568998 446.42931868248826 254.27374175706697 C446.52364428547503 254.9220828066071 446.5708070869684 255.70507961222188 446.5708070869684 256.6227321739113 Z M453.33649054488757 251.3562041804136 L455.0214763267458 251.3562041804136 L455.0214763267458 245.17701288362676 C455.0214763267458 244.1995139533981 455.06863912823917 243.24196349560222 455.1629647312257 242.30436151023918 C455.24871349515615 241.3667595248761 455.4545151081364 240.5289027553996 455.7803695701673 239.79079120180967 C456.0976406509304 239.0526796482198 456.55640340727894 238.45919856254133 457.1566578392134 238.01034794477434 C457.76548256799276 237.551518810207 458.58010563864696 237.32210424292336 459.60052705117613 237.32210424292336 L459.60052705117613 237.32210424292336 C460.6123781668601 237.32210424292336 461.41843094066905 237.551518810207 462.0186853726037 238.01034794477434 C462.61893326232655 238.45919856254133 463.07769601867517 239.0526796482198 463.3949736416495 239.79079120180967 C463.7036744255674 240.5289027553996 463.90518761901967 241.3667595248761 463.99951322200644 242.30436151023918 C464.08526198593665 243.24196349560222 464.1281363679019 244.1995139533981 464.1281363679019 245.17701288362676 L464.1281363679019 245.17701288362676 L464.1281363679019 251.3562041804136 L466.5977360970338 251.3562041804136 C467.120812061883 251.3562041804136 467.64388802673216 251.3861283159241 468.16696399158127 251.44597658694514 C468.69003995643044 251.5058229554844 469.15737628073 251.67538925174702 469.56897296447954 251.95467547573315 C469.98915302949695 252.23395979723745 470.3235810594787 252.65288818197573 470.5722570544242 253.21146062994785 C470.82092650715833 253.7800058872751 470.9452612335256 254.56300269288982 470.9452612335256 255.56045104679214 L470.9452612335256 255.56045104679214 C470.9452612335256 256.52797526518407 470.82092650715833 257.2910226471251 470.5722570544242 257.84959319261554 C470.3235810594787 258.40816564058764 469.98915302949695 258.8270940253259 469.56897296447954 259.1063783468302 C469.15737628073 259.38566457081635 468.69003995643044 259.57019293483427 468.16696399158127 259.659963438884 C467.64388802673216 259.73975923109685 467.120812061883 259.7796571272034 466.5977360970338 259.7796571272034 L466.5977360970338 259.7796571272034 L464.1281363679019 259.7796571272034 L464.1281363679019 272.0632336625849 C464.1281363679019 272.52205994342955 464.1452867749091 273.01579676446227 464.1795875889234 273.54444412568307 C464.20531156388125 274.0730914869038 464.30821073481866 274.56184118982844 464.4882851017356 275.01069323445665 C464.66835946865234 275.4495705672482 464.9427594385561 275.81363922593493 465.31148501144634 276.10289921051697 C465.67163374528 276.4021334313154 466.18184772265016 276.5517505417146 466.842126943557 276.5517505417146 L466.842126943557 276.5517505417146 C467.5710012502809 276.5517505417146 468.1883995470112 276.61658474179274 468.6943218337473 276.74625314194896 C469.2088275017515 276.8759215421051 469.63329271519166 277.10034732660904 469.9677174740675 277.4195304954608 C470.3021422329432 277.74868885176966 470.54652980836073 278.2075151326144 470.70088020031966 278.79600933799486 C470.8638008891235 279.3745293071589 470.9452612335256 280.12261569149075 470.9452612335256 281.04026849099034 L470.9452612335256 281.04026849099034 C470.9452612335256 281.97786976292275 470.7609017181862 282.78580287250924 470.3921826875072 283.4640678197497 C470.0148802755607 284.14233276699014 469.5175282856693 284.7009038475535 468.90012671783364 285.13978106143986 C468.2741483109414 285.5886328385317 467.54955915264 285.91779080096745 466.7263592429292 286.1272549487471 C465.9031593332185 286.33671909652685 465.0370850415428 286.4414511704167 464.1281363679019 286.4414511704167 L464.1281363679019 286.4414511704167 C462.70468202625676 286.4414511704167 461.4827441491696 286.2668977114564 460.46232273664066 285.9177907935359 C459.45047162095665 285.5686838756153 458.60583288471065 285.069959683801 457.92840652790255 284.42161821809293 C457.2595570101508 283.78325128586414 456.7279074773509 283.0102287759182 456.33345792950263 282.1025506882555 C455.93900183944305 281.2048473124295 455.6474514625324 280.19742448450063 455.45880679877064 279.08028220446874 C455.27015559279715 277.9531654504101 455.1501027437469 276.7412657860305 455.0986482516195 275.4445832113298 C455.04720030170387 274.147900636629 455.0214763267458 272.78638362403996 455.0214763267458 271.36003217356256 L455.0214763267458 271.36003217356256 L455.0214763267458 259.7796571272034 L453.33649054488757 259.7796571272034 C452.8134145800384 259.7796571272034 452.29462703471734 259.73975923109685 451.7801279089245 259.659963438884 C451.26562224092055 259.57019293483427 450.80685948457193 259.38566457081635 450.40383963987864 259.1063783468302 C450.00081325297407 258.8270940253259 449.6749620620488 258.40816564058764 449.4262860671034 257.84959319261554 C449.1776100721577 257.2910226471251 449.05327207468497 256.52797526518407 449.05327207468497 255.56045104679214 L449.05327207468497 255.56045104679214 C449.05327207468497 254.56300269288982 449.1776100721577 253.7800058872751 449.4262860671034 253.21146062994785 C449.6749620620488 252.65288818197573 450.00081325297407 252.23395979723745 450.40383963987864 251.95467547573315 C450.80685948457193 251.67538925174702 451.26562224092055 251.5058229554844 451.7801279089245 251.44597658694514 C452.29462703471734 251.3861283159241 452.8134145800384 251.3562041804136 453.33649054488757 251.3562041804136 L453.33649054488757 251.3562041804136 Z M488.6826648813761 251.3562041804136 L490.49628362244687 251.3562041804136 C490.99363561233815 251.3562041804136 491.5038495897081 251.39111567184258 492.02692555455724 251.46093865470039 C492.54999497719507 251.5307597350765 493.01733130149455 251.70531243601667 493.4289345274557 251.98459675752102 C493.8405377534166 252.26388298150707 494.1792509318209 252.6977734340006 494.4450740626678 253.28626811500146 C494.7023268966698 253.8747627960024 494.8309533136709 254.68269542996836 494.8309533136709 255.71006601689942 L494.8309533136709 255.71006601689942 C494.8309533136709 256.6676174259361 494.7023268966698 257.42069104728137 494.4450740626678 257.9692868809349 C494.1792509318209 258.5178846170702 493.8405377534166 258.93681300180845 493.4289345274557 259.2260720351496 C493.01733130149455 259.5253076828094 492.54999497719507 259.71482340274565 492.02692555455724 259.7946191949586 C491.5038495897081 259.8744149871715 490.99363561233815 259.914312883278 490.49628362244687 259.914312883278 L490.49628362244687 259.914312883278 L488.6826648813761 259.914312883278 L488.6826648813761 278.511736471521 C488.6826648813761 279.53910848531336 488.6355020798827 280.5265824840942 488.541176476896 281.47415846786345 C488.45542771296573 282.4217344516327 488.24534095156287 283.2645782797648 487.91091619268695 284.0026899522598 C487.57649143381104 284.74080174366 487.09629312203276 285.3292962760295 486.4703212573519 285.7681735493684 C485.83576601140317 286.21702529673394 484.9825504361005 286.4414511704167 483.91067453144444 286.4414511704167 L483.91067453144444 286.4414511704167 C482.8902531189152 286.4414511704167 482.08420361621165 286.21702529673394 481.49252602333377 285.7681735493684 C480.9008484304559 285.3292962760295 480.4506592420579 284.74080174366 480.14195845814015 284.0026899522598 C479.8418345132785 283.2645782797648 479.6531865784109 282.4217344516327 479.5760146535373 281.47415846786345 C479.49025934739575 280.5265824840942 479.4473816943248 279.53910848531336 479.4473816943248 278.511736471521 L479.4473816943248 278.511736471521 L479.4473816943248 259.914312883278 L477.76239591246656 259.914312883278 C477.1964488367578 259.914312883278 476.66051088442987 259.8744149871715 476.15458205548225 259.7946191949586 C475.64008292968936 259.71482340274565 475.1856085928689 259.5253076828094 474.7911590450208 259.2260720351496 C474.39670949717254 258.93681300180845 474.0794318741981 258.5178846170702 473.83932617609764 257.9692868809349 C473.59922702020856 257.42069104728137 473.479177442264 256.6676174259361 473.479177442264 255.71006601689942 L473.479177442264 255.71006601689942 C473.479177442264 254.68269542996836 473.59922702020856 253.8747627960024 473.83932617609764 253.28626811500146 C474.0794318741981 252.6977734340006 474.39670949717254 252.26388298150707 474.7911590450208 251.98459675752102 C475.1856085928689 251.70531243601667 475.64008292968936 251.5307597350765 476.15458205548225 251.46093865470039 C476.66051088442987 251.39111567184258 477.1964488367578 251.3562041804136 477.76239591246656 251.3562041804136 L477.76239591246656 251.3562041804136 L479.4473816943248 251.3562041804136 C479.4473816943248 249.30146110406974 479.5288453098326 247.40630961215172 479.69177254084775 245.6707497046595 C479.85469977186324 243.9451645090041 480.24914931971125 242.4689414018243 480.87512118439224 241.24208038312005 C481.49252275222807 240.00524275009724 482.4143366844537 239.04270493638296 483.6405629810688 238.3544669419772 C484.86678927768435 237.666225142608 486.5474899111199 237.32210424292336 488.6826648813761 237.32210424292336 L488.6826648813761 237.32210424292336 C489.59162009722843 237.32210424292336 490.444835672531 237.41686305413236 491.24231160728357 237.6063806765505 C492.0483578388812 237.79589449400504 492.75150817064764 238.08515352734622 493.35176260258174 238.47415777657397 C493.96058733136124 238.87313864012032 494.4407856431395 239.39679959666353 494.7923575379169 240.04514064620372 C495.14393597490584 240.68350698390702 495.31972519340013 241.46151643360338 495.31972519340013 242.3791689952928 L495.31972519340013 242.3791689952928 C495.31972519340013 243.2170257647693 495.1953871959271 243.9152403734936 494.94671120098144 244.47381282146574 C494.6894583669797 245.04235807879303 494.3807575830616 245.5011843596377 494.02060884922787 245.85029166399985 C493.660460115394 246.19939706588028 493.2617221480175 246.44377179843744 492.82439494709877 246.58341586167137 C492.39564458523614 246.72305802242352 492.00119503738813 246.7928791027996 491.64104630355416 246.7928791027996 L491.64104630355416 246.7928791027996 C491.34092235869286 246.7928791027996 491.05794554973284 246.71308331058665 490.7921158766743 246.55349172616087 C490.5348695848836 246.38392542989817 490.2347456400221 246.29914228176685 489.8917440420897 246.29914228176685 L489.8917440420897 246.29914228176685 C489.6087672331299 246.29914228176685 489.3901036326704 246.403873902331 489.23575324071146 246.6133371434592 C489.08997968780886 246.83277699890604 488.9699301098643 247.11705057881056 488.87560450687783 247.46615788317268 C488.78985574294734 247.81526328505313 488.7341193735033 248.19928017836244 488.70839539854546 248.61820856310067 C488.6912417204327 249.03713694783892 488.6826648813761 249.46105268849558 488.6826648813761 249.88995578507067 L488.6826648813761 249.88995578507067 L488.6826648813761 251.3562041804136 Z M498.45818098249504 273.24520990488463 L498.45818098249504 264.55244687280697 C498.45818098249504 262.3979576293356 498.7068537063351 260.5726267421732 499.2041991540151 259.07645421131974 C499.7101279829626 257.58028168046627 500.3618303648128 256.3284848334108 501.1593062995655 255.32106367015342 C501.9482053952619 254.31364060441433 502.83143009394496 253.53064284755862 503.80898039561464 252.9720703995865 C504.7865306972842 252.41349985409607 505.7469305919467 251.98958506468028 506.69018007960176 251.70032603133916 C507.63343610946833 251.42103980735303 508.51237565972895 251.24648615517197 509.32699873038314 251.17666507479586 C510.14162180103756 251.1068439944198 510.78045892430293 251.07193345423178 511.24351010017983 251.07193345423178 L511.24351010017983 251.07193345423178 C511.70656127605685 251.07193345423178 512.3411132508998 251.1068439944198 513.1471660247089 251.17666507479586 C513.9532122563069 251.24648615517197 514.8107129800319 251.42103980735303 515.7196681958841 251.70032603133916 C516.6371937085813 251.98958506468028 517.5632927892294 252.41349985409607 518.4979654378282 252.9720703995865 C519.4326446286383 253.53064284755862 520.2772833648845 254.31364060441433 521.0318816465666 255.32106367015342 C521.7864864704599 256.3284848334108 522.4038880382956 257.58028168046627 522.8840863500741 259.07645421131974 C523.3642846618524 260.5726267421732 523.6043838177418 262.3979576293356 523.6043838177418 264.55244687280697 L523.6043838177418 264.55244687280697 L523.6043838177418 273.24520990488463 C523.6043838177418 275.3996981971151 523.3642846618524 277.2250286086571 522.8840863500741 278.7212011395105 C522.4038880382956 280.2173734325538 521.7864864704599 281.46917099303994 521.0318816465666 282.47659382096884 C520.2772833648845 283.4840167678029 519.4326446286383 284.2670137517753 518.4979654378282 284.82558477288615 C517.5632927892294 285.38415591290214 516.6371937085813 285.8080714826327 515.7196681958841 286.0973314820779 C514.8107129800319 286.37661702607534 513.9532122563069 286.5511704887515 513.1471660247089 286.6209918701061 C512.3411132508998 286.6908132551765 511.70656127605685 286.7257239477117 511.24351010017983 286.7257239477117 L511.24351010017983 286.7257239477117 C510.78045892430293 286.7257239477117 510.14162180103756 286.6908132551765 509.32699873038314 286.6209918701061 C508.51237565972895 286.5511704887515 507.63343610946833 286.37661702607534 506.69018007960176 286.0973314820779 C505.7469305919467 285.8080714826327 504.7865306972842 285.38415591290214 503.80898039561464 284.82558477288615 C502.83143009394496 284.2670137517753 501.9482053952619 283.4840167678029 501.1593062995655 282.47659382096884 C500.3618303648128 281.46917099303994 499.7101279829626 280.2173734325538 499.2041991540151 278.7212011395105 C498.7068537063351 277.2250286086571 498.45818098249504 275.3996981971151 498.45818098249504 273.24520990488463 L498.45818098249504 273.24520990488463 Z M507.74490557725096 263.01138956554905 L507.74490557725096 275.6989326557238 C507.76205925536374 276.37719736515396 507.90354765984387 276.9756662823712 508.1693707906909 277.49433940737566 L508.1693707906909 277.49433940737566 C508.3923228106787 277.96313992443675 508.7396095570334 278.3770809532566 509.21123102975537 278.73616249383514 C509.6828590446887 279.1052182706301 510.360285401497 279.2897461590276 511.24351010017983 279.2897461590276 L511.24351010017983 279.2897461590276 C512.0924405270597 279.2897461590276 512.7398544893819 279.1052182706301 513.185751987146 278.73616249383514 C513.6402263239664 278.3770809532566 513.9789395023703 277.96313992443675 514.2018915223579 277.49433940737566 L514.2018915223579 277.49433940737566 C514.4419906782473 276.9756662823712 514.5834790827272 276.37719736515396 514.626356735798 275.6989326557238 L514.626356735798 275.6989326557238 L514.626356735798 263.01138956554905 C514.5834790827272 262.3032002449879 514.4419906782473 261.6598456001252 514.2018915223579 261.0813256309612 L514.2018915223579 261.0813256309612 C513.9789395023703 260.61252558952054 513.6402263239664 260.17364873234953 513.185751987146 259.7646950594481 C512.7398544893819 259.3557413865467 512.0924405270597 259.151264550096 511.24351010017983 259.151264550096 L511.24351010017983 259.151264550096 C510.360285401497 259.151264550096 509.6828590446887 259.3557413865467 509.21123102975537 259.7646950594481 C508.7396095570334 260.17364873234953 508.3923228106787 260.61252558952054 508.1693707906909 261.0813256309612 L508.1693707906909 261.0813256309612 C507.90354765984387 261.6598456001252 507.76205925536374 262.3032002449879 507.74490557725096 263.01138956554905 L507.74490557725096 263.01138956554905 Z M530.189983095427 278.5865453834359 L530.189983095427 245.11716461260576 C530.189983095427 244.12969097054028 530.2328607484978 243.16715410806688 530.3186160546394 242.22955402518556 C530.4129416576263 241.3019267516593 530.6187399995009 240.47404469401965 530.9360110802637 239.74590785226658 C531.2618655422949 239.01776910803173 531.7249167181715 238.43426083170834 532.3251646078945 237.99538302329645 C532.9339958788852 237.5465305030477 533.7486254917507 237.32210424292336 534.7690534464913 237.32210424292336 L534.7690534464913 237.32210424292336 C535.8151922917672 237.32210424292336 536.6383922014779 237.5465305030477 537.2386531756233 237.99538302329645 C537.8474713621914 238.43426083170834 538.3062308474343 239.01776910803173 538.6149316313522 239.74590785226658 C538.9236324152703 240.47404469401965 539.1251456087226 241.3019267516593 539.2194712117091 242.22955402518556 C539.3137968146959 243.16715410806688 539.3609596161892 244.12969097054028 539.3609596161892 245.11716461260576 L539.3609596161892 245.11716461260576 L539.3609596161892 278.5865453834359 C539.3609596161892 279.564044789285 539.3137968146959 280.5265824840942 539.2194712117091 281.47415846786345 C539.1251456087226 282.4217344516327 538.9236324152703 283.2645782797648 538.6149316313522 284.0026899522598 C538.3062308474343 284.74080174366 537.8474713621914 285.3292962760295 537.2386531756233 285.7681735493684 C536.6383922014779 286.21702529673394 535.8151922917672 286.4414511704167 534.7690534464913 286.4414511704167 L534.7690534464913 286.4414511704167 C533.7486254917507 286.4414511704167 532.9339958788852 286.21702529673394 532.3251646078945 285.7681735493684 C531.7249167181715 285.3292962760295 531.2618655422949 284.74080174366 530.9360110802637 284.0026899522598 C530.6187399995009 283.2645782797648 530.4129416576263 282.4217344516327 530.3186160546394 281.47415846786345 C530.2328607484978 280.5265824840942 530.189983095427 279.564044789285 530.189983095427 278.5865453834359 L530.189983095427 278.5865453834359 Z M548.2875452904284 278.5865453834359 L548.2875452904284 259.21110996739435 C548.2875452904284 258.2336110371657 548.330422943499 257.27606057936987 548.4161782496408 256.33845859400674 C548.5104907682047 255.40085851112545 548.7162891100795 254.56300269288982 549.0335732752652 253.8248911393 C549.3594146528732 253.08677768322832 549.8224658287502 252.49329564630895 550.4227268028959 252.04444502854201 C551.0229746926187 251.58561779645643 551.8375977632732 251.3562041804136 552.8665960148585 251.3562041804136 L552.8665960148585 251.3562041804136 C553.8955942664439 251.3562041804136 554.7102173370981 251.58561779645643 555.3104652268212 252.04444502854201 C555.9107262009671 252.49329564630895 556.3737773768437 253.08677768322832 556.699618754452 253.8248911393 C557.0169029196377 254.56300269288982 557.222707803724 255.40085851112545 557.3170334067103 256.33845859400674 C557.4113590096973 257.27606057936987 557.4585218111904 258.2336110371657 557.4585218111904 259.21110996739435 L557.4585218111904 259.21110996739435 L557.4585218111904 278.5865453834359 C557.4585218111904 279.564044789285 557.4113590096973 280.5265824840942 557.3170334067103 281.47415846786345 C557.222707803724 282.4217344516327 557.0169029196377 283.2645782797648 556.699618754452 284.0026899522598 C556.3737773768437 284.74080174366 555.9107262009671 285.3292962760295 555.3104652268212 285.7681735493684 C554.7102173370981 286.21702529673394 553.8955942664439 286.4414511704167 552.8665960148585 286.4414511704167 L552.8665960148585 286.4414511704167 C551.8375977632732 286.4414511704167 551.0229746926187 286.21702529673394 550.4227268028959 285.7681735493684 C549.8224658287502 285.3292962760295 549.3594146528732 284.74080174366 549.0335732752652 284.0026899522598 C548.7162891100795 283.2645782797648 548.5104907682047 282.4217344516327 548.4161782496408 281.47415846786345 C548.330422943499 280.5265824840942 548.2875452904284 279.564044789285 548.2875452904284 278.5865453834359 L548.2875452904284 278.5865453834359 Z M557.509963218895 242.648480507442 L557.509963218895 242.648480507442 C557.509963218895 244.45386339779208 557.1069368319904 245.79543170013815 556.3008840581809 246.6731854144802 C555.5034146656399 247.5509391288223 554.3800908110676 247.98981598599332 552.9309124944647 247.98981598599332 L552.9309124944647 247.98981598599332 C551.481734177862 247.98981598599332 550.3541186326559 247.5509391288223 549.5480658588465 246.6731854144802 C548.7420130850372 245.79543170013815 548.3389866981327 244.45386339779208 548.3389866981327 242.648480507442 L548.3389866981327 242.648480507442 C548.3389866981327 240.7832531510345 548.7420130850372 239.42672373217403 549.5480658588465 238.57889225086075 C550.3541186326559 237.7410335789025 551.481734177862 237.32210424292336 552.9309124944647 237.32210424292336 L552.9309124944647 237.32210424292336 C554.4744164140543 237.32210424292336 555.6234642435844 237.7410335789025 556.3780559830549 238.57889225086075 C557.1326608069483 239.42672373217403 557.509963218895 240.7832531510345 557.509963218895 242.648480507442 Z M564.8673209985866 273.24520990488463 L564.8673209985866 264.55244687280697 C564.8673209985866 262.3979576293356 565.1202821419548 260.5726267421732 565.626204428691 259.07645421131974 C566.1321267154271 257.58028168046627 566.7795439488552 256.3284848334108 567.5684561289739 255.32106367015342 C568.3659255215154 254.31364060441433 569.253435368621 253.53064284755862 570.2309856702908 252.9720703995865 C571.1999656751152 252.41349985409607 572.1603688408832 251.98958506468028 573.1121951675951 251.70032603133916 C574.0554381130389 251.42103980735303 574.9343776632993 251.24648615517197 575.7490138183764 251.17666507479586 C576.5636368890305 251.1068439944198 577.2024707411905 251.07193345423178 577.6655153748561 251.07193345423178 L577.6655153748561 251.07193345423178 C578.1285730929444 251.07193345423178 578.7588366482591 251.1068439944198 579.5563060408002 251.17666507479586 C580.3623588146097 251.24648615517197 581.224144686757 251.42103980735303 582.1416636572432 251.70032603133916 C583.0591957121519 251.98958506468028 583.9852980639055 252.41349985409607 584.9199707125044 252.9720703995865 C585.8546433611034 253.53064284755862 586.6992820973495 254.31364060441433 587.4538869212428 255.32106367015342 C588.2084917451357 256.3284848334108 588.8258933129719 257.58028168046627 589.3060916247501 259.07645421131974 C589.7862899365286 260.5726267421732 590.026389092418 262.3979576293356 590.026389092418 264.55244687280697 L590.026389092418 264.55244687280697 L590.026389092418 273.24520990488463 C590.026389092418 275.3996981971151 589.7862899365286 277.2250286086571 589.3060916247501 278.7212011395105 C588.8258933129719 280.2173734325538 588.2084917451357 281.46917099303994 587.4538869212428 282.47659382096884 C586.6992820973495 283.4840167678029 585.8546433611034 284.2670137517753 584.9199707125044 284.82558477288615 C583.9852980639055 285.38415591290214 583.0591957121519 285.8080714826327 582.1416636572432 286.0973314820779 C581.224144686757 286.37661702607534 580.3623588146097 286.5511704887515 579.5563060408002 286.6209918701061 C578.7588366482591 286.6908132551765 578.1285730929444 286.7257239477117 577.6655153748561 286.7257239477117 L577.6655153748561 286.7257239477117 C577.2024707411905 286.7257239477117 576.5636368890305 286.6908132551765 575.7490138183764 286.6209918701061 C574.9343776632993 286.5511704887515 574.0554381130389 286.37661702607534 573.1121951675951 286.0973314820779 C572.1603688408832 285.8080714826327 571.1999656751152 285.38415591290214 570.2309856702908 284.82558477288615 C569.253435368621 284.2670137517753 568.3659255215154 283.4840167678029 567.5684561289739 282.47659382096884 C566.7795439488552 281.46917099303994 566.1321267154271 280.2173734325538 565.626204428691 278.7212011395105 C565.1202821419548 277.2250286086571 564.8673209985866 275.3996981971151 564.8673209985866 273.24520990488463 L564.8673209985866 273.24520990488463 Z M574.1669108519269 263.01138956554905 L574.1669108519269 275.6989326557238 C574.18406453004 276.37719736515396 574.3212677860975 276.9756662823712 574.5785206200994 277.49433940737566 L574.5785206200994 277.49433940737566 C574.8014660978757 277.96313992443675 575.1487528442309 278.3770809532566 575.6203808591639 278.73616249383514 C576.092008874097 279.1052182706301 576.773720379328 279.2897461590276 577.6655153748561 279.2897461590276 L577.6655153748561 279.2897461590276 C578.5058624204679 279.2897461590276 579.1532796538959 279.1052182706301 579.6077670751388 278.73616249383514 C580.0622414119595 278.3770809532566 580.3966661708351 277.96313992443675 580.6110413517665 277.49433940737566 L580.6110413517665 277.49433940737566 C580.8597108045011 276.9756662823712 581.0011926667694 276.37719736515396 581.0354869385726 275.6989326557238 L581.0354869385726 275.6989326557238 L581.0354869385726 263.01138956554905 C581.0011926667694 262.3032002449879 580.8597108045011 261.6598456001252 580.6110413517665 261.0813256309612 L580.6110413517665 261.0813256309612 C580.3966661708351 260.61252558952054 580.0622414119595 260.17364873234953 579.6077670751388 259.7646950594481 C579.1532796538959 259.3557413865467 578.5058624204679 259.151264550096 577.6655153748561 259.151264550096 L577.6655153748561 259.151264550096 C576.773720379328 259.151264550096 576.092008874097 259.3557413865467 575.6203808591639 259.7646950594481 C575.1487528442309 260.17364873234953 574.8014660978757 260.61252558952054 574.5785206200994 261.0813256309612 L574.5785206200994 261.0813256309612 C574.3212677860975 261.6598456001252 574.18406453004 262.3032002449879 574.1669108519269 263.01138956554905 L574.1669108519269 263.01138956554905 Z "></path>
    </defs>
    <g style="mix-blend-mode:normal">
      <use xmlns:xlink="http://www.w3.org/1999/xlink" xlink:href="#s-Path_4-d1224" fill="#333333" fill-opacity="1.0"></use>
    </g>
  </g>
</svg>
